# xmcd CD database file
#
# Track frame offsets:
#	150
#	24110
#	45590
#	69495
#
# Disc length: 1210 seconds
#
# Revision: 2
# Processed by: cddbd v1.5.2PL0 Copyright (c) Steve Scherf et al.
# Submitted via: CD2WAV32(JP) R3.22
#
DISCID=2604b804
DTITLE=ZIZZ STUDIO - PHANTOM THE ANIMATION OP&ED
DYEAR=2004
DGENRE=Anime
TTITLE0=月光
TTITLE1=I myself am hell
TTITLE2=月光(off vocal)
TTITLE3=I myself am hell(off vocal)
EXTD=
EXTT0=
EXTT1=
EXTT2=
EXTT3=
PLAYORDER=
